<svg id="Layer_1" enable-background="new 0 0 512 512" height="300" viewBox="0 0 512 512" width="200" xmlns="http://www.w3.org/2000/svg"><g><circle cx="256" cy="256" fill="#ffe65a" r="256"/><g><g><path d="m235.157 397.909h-196.908c-8.893 0-16.102-7.209-16.102-16.102v-257.982c0-8.893 7.209-16.102 16.102-16.102h196.908c8.893 0 16.102 7.209 16.102 16.102v257.983c0 8.893-7.209 16.101-16.102 16.101z" fill="#827ddc"/></g><g><path d="m462.869 397.909h-196.908c-8.893 0-16.102-7.209-16.102-16.102v-257.982c0-8.893 7.209-16.102 16.102-16.102h196.908c8.893 0 16.102 7.209 16.102 16.102v257.983c0 8.893-7.209 16.101-16.102 16.101z" fill="#6e64c3"/></g><g><path d="m42.276 125.696h207.584v254.241h-207.584z" fill="#fff"/></g><g><path d="m248.591 125.696h207.584v254.241h-207.584z" fill="#d2f0ff"/></g><g><path d="m248.591 125.696h207.584v254.241h-207.584z" fill="#afe6ff"/></g><g><g fill="#fff"><path d="m316.225 179.947c-.537.976-1.366 1.268-2.147 1.268-.78 0-1.561-.292-2.098-1.268l-5.61-10.538v21.368c0 1.317-1.61 2-3.171 2-1.61 0-3.171-.683-3.171-2v-30.491c0-2.341 1.561-3.17 3.171-3.17 2.293 0 3.318.488 4.928 3.366l6 10.928 6.001-10.928c1.61-2.878 2.683-3.366 4.976-3.366 1.61 0 3.171.829 3.171 3.17v30.491c0 1.317-1.61 2-3.171 2-1.61 0-3.171-.683-3.171-2v-20.978z"/><path d="m340.476 172.434h7.415c1.268 0 2 1.22 2 2.537 0 1.122-.634 2.44-2 2.44h-7.415v9.806h13.806c1.268 0 2 1.317 2 2.829 0 1.318-.634 2.732-2 2.732h-17.368c-1.414 0-2.781-.683-2.781-2v-31.661c0-1.318 1.367-2 2.781-2h17.368c1.366 0 2 1.414 2 2.731 0 1.512-.732 2.83-2 2.83h-13.806z"/><path d="m376.824 190.777-10.489-19.611v19.611c0 1.317-1.61 2-3.171 2-1.61 0-3.171-.683-3.171-2v-31.661c0-1.367 1.561-2 3.171-2 2.293 0 3.22.488 4.732 3.366l9.415 18.197v-19.611c0-1.367 1.561-1.951 3.171-1.951 1.561 0 3.171.585 3.171 1.951v31.71c0 1.317-1.61 2-3.171 2-1.511-.001-2.829-.489-3.658-2.001z"/><path d="m406.441 159.067c0-1.367 1.561-1.951 3.171-1.951 1.561 0 3.171.585 3.171 1.951v22.831c0 8.147-5.171 11.171-11.709 11.171-6.586 0-11.708-3.024-11.708-11.171v-22.831c0-1.367 1.561-1.951 3.171-1.951 1.561 0 3.17.585 3.17 1.951v22.831c0 3.805 2.001 5.61 5.367 5.61 3.367 0 5.367-1.804 5.367-5.61z"/></g></g><g><g><path d="m390.613 221.08c-64.66 0-117.078 52.417-117.078 117.078 0 14.72 2.724 28.802 7.684 41.78h174.956v-138.792c-18.706-12.666-41.269-20.066-65.562-20.066z" fill="#dc6a2f"/></g><g><path d="m390.613 238.714c-54.921 0-99.443 44.522-99.443 99.443 0 14.924 3.294 29.076 9.184 41.78h155.822v-116.544c-17.504-15.362-40.444-24.679-65.563-24.679z" fill="#ef8c3d"/></g><g><path d="m308.107 379.937h148.068v-106.978c-16.747-16.84-39.936-27.267-65.562-27.267-51.067 0-92.465 41.398-92.465 92.465 0 15.036 3.592 29.231 9.959 41.78z" fill="#ffebb4"/></g><g><g><path d="m456.175 324.764c-1.865-.554-3.835-.862-5.88-.862-11.392 0-20.627 9.235-20.627 20.628s9.235 20.628 20.627 20.628c2.045 0 4.015-.308 5.88-.862z" fill="#e33442"/></g><g><path d="m456.175 330.622c-1.807-.765-3.794-1.188-5.88-1.188-8.337 0-15.096 6.759-15.096 15.096s6.759 15.096 15.096 15.096c2.086 0 4.073-.423 5.88-1.188z" fill="#fd4755"/></g></g><g><g><path d="m397.496 352.298c-11.392 0-20.628 9.235-20.628 20.628 0 2.466.455 4.819 1.249 7.011h38.758c.794-2.192 1.249-4.546 1.249-7.011 0-11.393-9.236-20.628-20.628-20.628z" fill="#e33442"/></g><g><path d="m397.496 357.829c-8.337 0-15.096 6.759-15.096 15.096 0 2.533.631 4.915 1.733 7.011h26.726c1.102-2.096 1.733-4.479 1.733-7.011 0-8.337-6.759-15.096-15.096-15.096z" fill="#fd4755"/></g></g><g><g><circle cx="333.145" cy="327.016" fill="#e33442" r="20.627"/></g><g><circle cx="333.145" cy="327.016" fill="#fd4755" r="15.096"/></g></g><g><g><circle cx="393.242" cy="277.917" fill="#e33442" r="20.627"/></g><g><circle cx="393.242" cy="277.917" fill="#fd4755" r="15.096"/></g></g><g><g><path d="m350.11 269.789c8.993 8.993 6.648 25.92 6.648 25.92s-16.927 2.346-25.92-6.648c-8.993-8.993-6.648-25.92-6.648-25.92s16.927-2.346 25.92 6.648z" fill="#97d729"/></g><g><path d="m330.838 289.061c8.993 8.993 25.92 6.648 25.92 6.648l-32.568-32.568c.001 0-2.345 16.926 6.648 25.92z" fill="#82bd1c"/></g></g><g><path d="m363.981 378.85s-10.31-13.628-23.029-13.628c-12.718 0-23.029 13.628-23.029 13.628s.315.414.89 1.087h44.278c.576-.674.89-1.087.89-1.087z" fill="#97d729"/></g><g><g><path d="m423.692 326.337c-8.993 8.993-25.92 6.648-25.92 6.648s-2.346-16.927 6.648-25.92c8.993-8.993 25.92-6.648 25.92-6.648s2.345 16.927-6.648 25.92z" fill="#97d729"/></g><g><path d="m404.42 307.065c-8.993 8.993-6.648 25.92-6.648 25.92l32.568-32.568c-.001.001-16.927-2.345-25.92 6.648z" fill="#82bd1c"/></g></g><g><path d="m356.783 356.148c-10.852 0-19.681-8.829-19.681-19.681s8.829-19.681 19.681-19.681 19.681 8.829 19.681 19.681c.001 10.853-8.828 19.681-19.681 19.681zm0-31.661c-6.606 0-11.981 5.375-11.981 11.981s5.375 11.981 11.981 11.981 11.981-5.375 11.981-11.981c0-6.607-5.375-11.981-11.981-11.981z" fill="#fff"/></g><g><path d="m430.614 290.79c0 10.852 8.829 19.681 19.681 19.681 2.047 0 4.022-.316 5.88-.899v-8.356c-1.739.985-3.743 1.554-5.88 1.554-6.606 0-11.981-5.375-11.981-11.981s5.375-11.981 11.981-11.981c2.137 0 4.141.569 5.88 1.554v-7.404c-.435-.437-.877-.868-1.32-1.296-1.466-.35-2.988-.555-4.56-.555-10.852.001-19.681 8.83-19.681 19.683z" fill="#fff"/></g><g><path d="m437.851 374.183c0 2.03.394 3.965 1.084 5.754h8.927c-1.428-1.501-2.31-3.524-2.31-5.754 0-4.611 3.752-8.363 8.363-8.363.785 0 1.541.116 2.262.319v-7.842c-.741-.105-1.492-.178-2.262-.178-8.859.001-16.064 7.206-16.064 16.064z" fill="#fff"/></g><g><path d="m372.615 306.62h11.982v11.982h-11.982z" fill="#965028"/></g><g><path d="m307.453 352.298h12.859v12.859h-12.859z" fill="#965028"/></g></g><g><path d="m74.771 166.402h56.675v12.513h-56.675z" fill="#d2f0ff"/></g><g><path d="m74.771 204.985h81.701v12.513h-81.701z" fill="#d2f0ff"/></g><g><path d="m74.771 231.836h56.675v12.513h-56.675z" fill="#d2f0ff"/></g><g><path d="m74.771 258.687h75.445v12.513h-75.445z" fill="#d2f0ff"/></g><g><path d="m74.771 285.538h24.349v12.513h-24.349z" fill="#d2f0ff"/></g><g><path d="m74.771 312.39h56.675v12.513h-56.675z" fill="#d2f0ff"/></g><g><path d="m182.777 204.985h27.055v12.513h-27.055z" fill="#d2f0ff"/></g><g><path d="m142.838 231.836h66.993v12.513h-66.993z" fill="#d2f0ff"/></g><g><path d="m163.666 258.687h46.165v12.513h-46.165z" fill="#d2f0ff"/></g><g><path d="m119.251 285.538h90.58v12.513h-90.58z" fill="#d2f0ff"/></g></g></g></svg>